<?xml version="1.0" encoding="UTF-8" standalone="no"?>
<!-- Created with Inkscape (http://www.inkscape.org/) -->

<svg
   version="1.1"
   id="svg2"
   width="431.45334"
   height="288.49332"
   viewBox="0 0 431.45334 288.49332"
   sodipodi:docname="3478044_20483.eps"
   xmlns:inkscape="http://www.inkscape.org/namespaces/inkscape"
   xmlns:sodipodi="http://sodipodi.sourceforge.net/DTD/sodipodi-0.dtd"
   xmlns="http://www.w3.org/2000/svg"
   xmlns:svg="http://www.w3.org/2000/svg">
  <defs
     id="defs6" />
  <sodipodi:namedview
     id="namedview4"
     pagecolor="#ffffff"
     bordercolor="#000000"
     borderopacity="0.25"
     inkscape:showpageshadow="2"
     inkscape:pageopacity="0.0"
     inkscape:pagecheckerboard="0"
     inkscape:deskcolor="#d1d1d1" />
  <g
     id="g8"
     inkscape:groupmode="layer"
     inkscape:label="ink_ext_XXXXXX"
     transform="matrix(1.3333333,0,0,-1.3333333,0,288.49333)">
    <g
       id="g10"
       transform="scale(0.1)">
      <path
         d="m -247.902,2214.6 c 0.621,-49.4 0.054,-98.82 -1.086,-148.22 -2.649,-115.98 -8.301,-231.85 -2.969,-347.82 5.293,-115.17 12.832,-230.2 22.387,-345.08 16.597,-199.84 38.789,-399.152 64.175,-598.031 19.965,-145.379 41.192,-290.59 62.891,-435.699 22.2735,-149.109 45.7618,-298.0312 68.1681,-447.078 H 3470.19 c -10.17,234.16 -22.56,468.219 -36.5,702.25 -32.07,539.188 -67.54,1079.318 -62.61,1619.628 l -3618.982,0.05"
         style="fill:#834929;fill-opacity:1;fill-rule:nonzero;stroke:none"
         id="path12" />
      <path
         d="m 1068.74,1146.59 c -106.349,0 -212.662,9.46 -316.685,32.27 -74.965,16.43 -149.117,38.21 -219.844,68.47 -71.691,30.7 -144.289,67.12 -221.953,79.3 -16.496,2.59 -32.809,3.76 -48.961,3.76 -89.914,0 -174.9962,-36.3 -261.297,-66.32 v 618.47 c 13.4258,-9.73 30.9688,-14.47 46.8242,-17.4 21.1133,-3.91 42.4727,-6.27 63.8948,-6.27 5.976,0 11.961,0.18 17.937,0.57 53.145,3.41 110.375,24.61 132.684,77.54 6.773,16.09 9.683,35.7 -2.215,50.13 -11.203,13.58 -29.801,17.91 -46.336,20.19 -9.594,1.31 -19.09,1.93 -28.484,1.93 -62.157,0 -120.0159,-27.08 -173.3792,-58.83 C 7.07422,1949.09 3.39453,1947.61 0,1945.95 v 137.1 c 41.8203,-6.5 83.7422,-12.24 125.961,-16 20.941,-1.87 41.723,-2.73 62.418,-2.72 66.875,0 132.734,8.93 199.25,21.58 93.851,17.86 185.613,35.89 281.094,42.72 98.558,7.04 197.132,13.98 295.765,20.12 98.532,6.15 197.132,11.37 295.792,14.99 h 520.36 c 121.84,-5.58 243.48,-15.71 364.5,-31.34 75.19,-9.71 147.82,-18.48 222.77,-18.48 14.1,0 28.3,0.31 42.6,0.99 85.67,4.03 170.86,16.09 255.57,29.04 40.61,6.19 81.16,13.36 121.78,19.79 h 359.2 c 29.62,-5.2 59.19,-10.77 88.8,-15.68 v -70.6 c -7.28,2.01 -14.61,3.82 -22,5.38 -12.97,2.73 -27.16,5.35 -41.08,5.35 -11.68,0 -23.17,-1.84 -33.6,-7 -19.07,-9.43 -33.24,-29.67 -25.02,-50.93 8.14,-21.12 35.73,-33.93 54.79,-42.03 20.87,-8.86 43.78,-14.02 66.91,-16.73 v -129.82 c -3.81,2.73 -8.72,4.8 -14.89,6.04 -4.26,0.87 -8.69,1.23 -13.21,1.23 -15.84,0 -32.72,-4.53 -47.15,-8.2 -22.73,-5.79 -45.51,-14.02 -64.93,-27.53 -14.53,-10.11 -28.4,-27.93 -22.62,-46.75 6.57,-21.32 33.67,-30.55 52.58,-35.9 8.54,-2.42 17.33,-4.34 26.21,-5.66 6.01,-2.32 12.4,-3.61 18.87,-3.61 10.52,0 21.24,3.41 30.83,11.32 10.11,8.34 24.46,26.67 34.31,46.36 v -586.56 c -55.73,11.92 -111.74,18.51 -168.98,18.51 -7.84,0 -15.68,-0.12 -23.56,-0.37 -82.66,-2.64 -164.61,-14.11 -246.87,-21.85 -54.54,-5.13 -108.85,-6.98 -163.32,-6.98 -26.42,0 -52.87,0.43 -79.42,1.14 -37.79,1.01 -75.7,2.26 -113.58,2.26 -11.96,0 -23.91,-0.12 -35.87,-0.42 -40.48,-3.98 -80.74,-11.77 -121.38,-11.77 -2.8,0 -5.6,0.03 -8.4,0.11 -53.13,1.45 -106.66,12.45 -158.4,24.14 -78.31,17.7 -155.6,40.45 -234.62,54.8 -41.36,7.51 -82.03,11.74 -122.76,11.74 -35.86,0 -71.76,-3.27 -108.23,-10.48 -144.56,-28.54 -279.83,-88.95 -427.95,-100.48 -51.08,-3.98 -102.44,-6.18 -153.78,-6.18 m 1010.07,274.19 c -2.95,0 -6.04,-1.48 -8.44,-2.79 -5.81,-3.14 -15.32,-10.53 -13.43,-18.33 0.98,-4.11 6.67,-5.26 10.11,-5.71 1.36,-0.18 2.76,-0.27 4.17,-0.27 3.74,0 7.55,0.64 10.99,1.89 4.4,1.59 6.07,5.07 6.36,9.68 0.31,4.55 -0.48,11.15 -4.96,13.46 -0.62,0.77 -1.46,1.39 -2.58,1.75 -0.72,0.22 -1.47,0.32 -2.22,0.32 m 807.33,87.18 c -0.99,0 -1.99,-0.11 -3,-0.36 -6.06,-1.49 -7.73,-10.06 -8.41,-15.23 -0.98,-7.56 -0.16,-15.73 2.37,-22.88 2.34,-6.62 7.47,-9.14 14.27,-9.61 0.8,-0.06 1.64,-0.09 2.51,-0.09 6.4,0 14.3,1.64 17.31,7.57 1.13,0.94 2.05,2.19 2.55,3.91 1.6,5.32 -1.19,11.51 -3.61,16.09 -4.24,7.98 -13.66,20.6 -23.99,20.6 m -2386.285,0 c -0.992,0 -1.992,-0.11 -3,-0.36 -6.05,-1.49 -7.73,-10.06 -8.402,-15.23 -0.988,-7.56 -0.172,-15.73 2.371,-22.88 2.34,-6.62 7.481,-9.14 14.258,-9.61 0.801,-0.06 1.648,-0.09 2.52,-0.09 6.414,0 14.308,1.64 17.296,7.57 1.153,0.94 2.067,2.19 2.586,3.91 1.594,5.32 -1.211,11.51 -3.636,16.09 -4.235,7.98 -13.653,20.6 -23.993,20.6 m 1344.395,7.32 c -2.28,0 -4.68,-1.14 -6.56,-2.15 -4.5,-2.45 -11.86,-8.17 -10.41,-14.22 0.77,-3.17 5.18,-4.06 7.84,-4.42 1.06,-0.15 2.15,-0.22 3.25,-0.22 2.89,0 5.84,0.5 8.52,1.48 3.4,1.23 4.69,3.92 4.94,7.5 0.23,3.52 -0.39,8.64 -3.87,10.43 l -2,1.36 c -0.55,0.16 -1.13,0.24 -1.71,0.24 m -451.53,27.9 c -4.38,0 -8.98,-2.19 -12.59,-4.15 -8.64,-4.68 -22.81,-15.69 -20,-27.3 1.47,-6.12 9.94,-7.84 15.05,-8.51 2.04,-0.27 4.13,-0.41 6.23,-0.41 5.58,0 11.25,0.95 16.39,2.81 6.53,2.38 9.02,7.56 9.48,14.43 0.45,6.77 -0.72,16.61 -7.39,20.06 -0.93,1.14 -2.16,2.08 -3.86,2.6 -1.08,0.33 -2.18,0.47 -3.31,0.47 m 1802.55,103.76 c -1.39,0 -2.8,-0.17 -4.21,-0.51 -8.51,-2.1 -10.88,-14.14 -11.82,-21.41 -1.37,-10.61 -0.24,-22.07 3.32,-32.14 3.32,-9.31 10.5,-12.84 20.06,-13.5 1.12,-0.08 2.31,-0.12 3.53,-0.12 9.01,0 20.12,2.3 24.3,10.64 1.61,1.33 2.91,3.07 3.65,5.5 2.21,7.47 -1.71,16.16 -5.12,22.58 -5.94,11.21 -19.2,28.96 -33.71,28.96 m -2386.286,0 c -1.394,0 -2.8,-0.17 -4.214,-0.51 -8.497,-2.1 -10.875,-14.14 -11.801,-21.41 -1.387,-10.61 -0.239,-22.07 3.32,-32.14 3.301,-9.31 10.504,-12.84 20.043,-13.5 1.125,-0.08 2.309,-0.12 3.531,-0.12 9.02,0 20.114,2.3 24.309,10.64 1.605,1.33 2.914,3.07 3.641,5.5 2.23,7.47 -1.696,16.16 -5.114,22.58 -5.945,11.21 -19.187,28.96 -33.715,28.96 m -606.793,122.87 c -2.043,-1.35 -4.074,-2.71 -6.086,-4.09 -1.41,-0.96 -2.394,-2.12 -3.078,-3.35 -14.168,-8.42 -27.672,-17.69 -40.129,-26.71 -28.128,-20.33 -70.5699,-54.24 -65.8941,-94.06 2.1133,-17.94 19.5981,-30.74 34.0741,-38.5 20.992,-11.24 46.379,-13.94 69.742,-14.08 0.567,0 1.125,-0.01 1.688,-0.01 51.484,0 106.16,14.32 150.617,40.54 29.047,17.14 49.277,43.11 65.172,72.68 14.375,26.76 27.156,60.27 20.996,91.16 -5.852,29.3 -32.449,37.76 -58.289,37.76 -3.754,0 -7.496,-0.18 -11.156,-0.5 -29.086,-2.52 -58.457,-12.76 -85.508,-23.35 -9.586,-3.76 -19.027,-7.91 -28.293,-12.44 -6.914,10.12 -17.512,21.03 -28.91,21.03 -1.399,0 -2.805,-0.16 -4.223,-0.51 -8.496,-2.08 -10.867,-14.13 -11.797,-21.4 -1.031,-7.89 -0.652,-16.26 1.074,-24.17 M 1995.57,1638.43 c -4.13,0 -8.48,-2.06 -11.87,-3.91 -8.15,-4.42 -21.52,-14.81 -18.88,-25.75 1.4,-5.78 9.37,-7.38 14.2,-8.03 1.93,-0.26 3.91,-0.38 5.89,-0.38 5.26,0 10.6,0.89 15.45,2.65 6.17,2.24 8.51,7.12 8.94,13.6 0.42,6.4 -0.69,15.67 -6.98,18.91 -0.87,1.09 -2.02,1.97 -3.64,2.47 -1.01,0.31 -2.05,0.44 -3.11,0.44 m -402.2,27.59 c -0.99,0 -1.99,-0.12 -3,-0.37 -6.06,-1.49 -7.74,-10.07 -8.41,-15.24 -0.99,-7.54 -0.16,-15.7 2.37,-22.87 2.34,-6.62 7.48,-9.14 14.26,-9.61 0.8,-0.05 1.65,-0.08 2.53,-0.08 6.42,0 14.32,1.63 17.29,7.58 1.16,0.93 2.08,2.17 2.6,3.9 1.58,5.31 -1.21,11.51 -3.63,16.07 -4.23,7.99 -13.67,20.62 -24.01,20.62 m 1001.94,10.9 c -1,0 -2,-0.12 -3,-0.36 -6.05,-1.51 -7.74,-10.08 -8.41,-15.25 -0.98,-7.54 -0.17,-15.7 2.36,-22.87 2.36,-6.62 7.49,-9.14 14.28,-9.6 0.81,-0.06 1.67,-0.09 2.55,-0.09 6.41,0 14.29,1.65 17.27,7.58 1.14,0.93 2.07,2.17 2.57,3.9 1.61,5.31 -1.2,11.5 -3.62,16.07 -4.23,7.99 -13.65,20.62 -24,20.62 m -1552.07,7.06 c -3.4,0 -6.97,-1.7 -9.74,-3.21 -6.71,-3.64 -17.69,-12.17 -15.52,-21.17 1.15,-4.75 7.71,-6.06 11.67,-6.59 1.59,-0.21 3.22,-0.31 4.86,-0.31 4.31,0 8.69,0.72 12.68,2.16 5.07,1.84 6.99,5.86 7.34,11.19 0.35,5.25 -0.57,12.88 -5.74,15.54 -0.72,0.9 -1.66,1.61 -2.98,2.02 -0.84,0.25 -1.7,0.37 -2.57,0.37 m 859.26,121.01 c -1.4,0 -2.8,-0.16 -4.21,-0.51 -8.49,-2.08 -10.86,-14.14 -11.81,-21.4 -1.38,-10.61 -0.22,-22.08 3.33,-32.14 3.29,-9.31 10.5,-12.85 20.03,-13.5 1.13,-0.08 2.32,-0.12 3.55,-0.12 9.01,0 20.1,2.3 24.3,10.64 1.61,1.33 2.91,3.07 3.63,5.49 2.24,7.47 -1.68,16.16 -5.09,22.58 -5.96,11.22 -19.2,28.96 -33.73,28.96 m 1001.95,10.9 c -1.4,0 -2.81,-0.16 -4.22,-0.51 -8.5,-2.08 -10.87,-14.13 -11.83,-21.4 -1.35,-10.6 -0.2,-22.09 3.34,-32.15 3.3,-9.31 10.5,-12.84 20.04,-13.48 1.14,-0.08 2.34,-0.12 3.58,-0.12 9.01,0 20.08,2.3 24.27,10.64 1.6,1.3 2.9,3.05 3.63,5.49 2.23,7.45 -1.69,16.16 -5.09,22.57 -5.95,11.22 -19.2,28.96 -33.72,28.96 m -175.19,162.91 c -0.68,0 -1.44,-0.1 -2.29,-0.34 -40.47,-10.87 -81.44,-21.15 -119.58,-39.07 -29.06,-13.67 -69.77,-39.89 -58.83,-78.3 6.3,-22.14 27.09,-39.07 45.8,-50.23 25.36,-15.11 53.57,-23.04 82.79,-25.4 5.71,-0.46 11.42,-0.68 17.16,-0.68 52.15,0 104.95,18.74 146.18,50.44 21.03,16.17 37.83,37.14 52.11,59.45 9.01,14.08 17.09,30.34 18.1,47.36 1.67,28.26 -24.45,39.37 -47.92,42.36 -7.34,0.95 -14.78,1.36 -22.27,1.36 -8.07,0 -16.19,-0.48 -24.3,-1.32 -9.8,0.91 -19.71,1.45 -29.59,1.45 -19.12,0 -38.12,-2.02 -55.92,-7.26 -0.43,0.11 -0.91,0.18 -1.44,0.18 M 1268.7,1867.46 c -6.16,0 -12.63,-3.07 -17.67,-5.82 -12.16,-6.59 -32.06,-22.05 -28.12,-38.38 2.07,-8.59 13.97,-10.99 21.16,-11.95 2.86,-0.38 5.79,-0.57 8.74,-0.57 7.83,0 15.79,1.33 23.03,3.95 9.19,3.34 12.69,10.62 13.33,20.27 0.62,9.52 -1.03,23.34 -10.4,28.18 -1.29,1.62 -3.03,2.93 -5.42,3.66 -1.51,0.46 -3.07,0.66 -4.65,0.66 m 1762.91,-13.42 c -0.77,0 -1.55,-0.09 -2.33,-0.28 -4.68,-1.15 -5.99,-7.79 -6.51,-11.81 -0.75,-5.84 -0.12,-12.16 1.83,-17.73 1.83,-5.13 5.81,-7.08 11.08,-7.43 0.62,-0.05 1.28,-0.07 1.96,-0.07 4.95,0 11.07,1.27 13.38,5.87 0.88,0.71 1.61,1.69 2,3.02 1.24,4.12 -0.94,8.92 -2.82,12.46 -3.28,6.19 -10.57,15.97 -18.59,15.97 m -2386.27,0 c -0.77,0 -1.547,-0.09 -2.328,-0.28 -4.696,-1.15 -6.004,-7.79 -6.512,-11.81 -0.758,-5.84 -0.129,-12.16 1.824,-17.73 1.817,-5.13 5.801,-7.08 11.051,-7.43 0.625,-0.05 1.285,-0.07 1.969,-0.07 4.969,0 11.07,1.27 13.398,5.87 0.895,0.71 1.602,1.69 2.004,3.02 1.227,4.12 -0.93,8.92 -2.82,12.46 -3.274,6.19 -10.574,15.97 -18.586,15.97 m 1430.96,216.51 c -10.27,0 -20.55,-0.89 -30.82,-3.26 -20.28,-4.69 -37.82,-17.76 -45.66,-37.59 -10.08,-25.54 -0.78,-52.72 13.33,-74.69 26.44,-41.18 71.39,-70.02 119.5,-70.02 7.84,0 15.76,0.77 23.7,2.37 58.34,11.79 98.75,66.14 100.43,124.91 0.74,26.6 -10.99,49.61 -37.14,57.24 -8.77,2.56 -17.94,3.57 -27.24,3.57 -18.92,0 -38.38,-4.18 -56.14,-8.04 -19.98,2.16 -39.97,5.51 -59.96,5.51 m -1382.589,2.85 c -24.969,0 -50.414,-14.81 -65.637,-34.58 l -0.922,-0.58 c -32.812,-24.09 -39.691,-64.69 -9.394,-94.08 13.73,-13.33 30.773,-19.66 47.805,-19.66 19.449,0 38.882,8.26 53.359,23.8 26.211,28.15 45.176,91.48 5.234,116.51 -9.535,5.98 -19.949,8.59 -30.445,8.59 m 1045.139,-61.31 c -0.77,0 -1.55,-0.09 -2.33,-0.28 -4.68,-1.15 -5.99,-7.79 -6.51,-11.8 -0.76,-5.85 -0.12,-12.17 1.84,-17.73 1.8,-5.13 5.78,-7.09 11.04,-7.44 0.63,-0.05 1.29,-0.07 1.97,-0.07 4.98,0 11.09,1.27 13.39,5.86 0.91,0.74 1.62,1.7 2.01,3.04 1.23,4.12 -0.93,8.92 -2.82,12.46 -3.26,6.18 -10.58,15.96 -18.59,15.96 m 704.7,59.5 c -3.21,0 -6.43,-0.18 -9.67,-0.6 -17.99,-2.32 -29.56,-18.87 -29.88,-36.53 -0.67,-36.06 51.33,-53.51 79.46,-55.85 1.49,-0.12 3,-0.18 4.53,-0.18 30.08,0 68.02,23.44 82.33,48.61 8.06,14.16 2.61,29.03 -11.09,36.71 -11.93,6.68 -24.08,8.5 -36.39,8.5 -7.28,0 -14.61,-0.64 -21.99,-1.27 -7.38,-0.63 -14.81,-1.26 -22.27,-1.26 -3.6,0 -7.21,0.14 -10.83,0.51 -0.2,0.02 -0.4,0.03 -0.6,0.03 -0.77,0 -1.52,-0.14 -2.24,-0.37 -7.11,0.84 -14.2,1.7 -21.36,1.7 m -1321.7,48.61 c -7.5,0 -15.15,-0.9 -22.6,-2.06 -22.37,-3.46 -45.5,-10.5 -66.81,-20.18 -37.592,-6.34 -73.811,-17.43 -103.569,-43.37 -2.953,-2.56 -6.25,-7.75 -3.629,-11.74 7.879,-12.08 21.457,-19.31 33.996,-25.45 19.223,-9.4 39.907,-15.81 60.482,-21.32 35.48,-9.51 73.46,-16.98 110.7,-16.98 7.1,0 14.18,0.28 21.21,0.86 13.8,1.14 29.24,3.47 40.28,12.68 13.47,11.24 11.94,29.69 7.82,45.13 -6.59,24.75 -20.61,49.12 -38.17,67.52 -10.98,11.5 -25.06,14.91 -39.71,14.91 m 1618.93,-97.21 c -0.77,0 -1.55,-0.09 -2.33,-0.28 -4.68,-1.14 -5.97,-7.8 -6.5,-11.8 -0.76,-5.85 -0.13,-12.18 1.84,-17.73 1.8,-5.13 5.78,-7.09 11.03,-7.44 0.63,-0.04 1.3,-0.06 1.99,-0.06 4.98,0 11.07,1.27 13.39,5.86 0.9,0.73 1.62,1.69 1.99,3.03 1.24,4.12 -0.93,8.93 -2.8,12.46 -3.28,6.18 -10.59,15.96 -18.61,15.96 m -2687.2956,0 c -0.7696,0 -1.543,-0.09 -2.3242,-0.28 -4.6797,-1.14 -6.0039,-7.8 -6.5274,-11.8 -0.7422,-5.85 -0.1055,-12.18 1.8477,-17.73 1.8203,-5.13 5.7968,-7.09 11.0625,-7.44 0.6289,-0.04 1.2968,-0.06 1.9843,-0.06 4.9571,0 11.0665,1.27 13.3672,5.86 0.8828,0.73 1.5938,1.69 2.0039,3.03 1.2305,4.12 -0.9414,8.93 -2.8125,12.46 -3.289,6.18 -10.5976,15.96 -18.6015,15.96 m 1305.8856,63.9 c -25.12,0 -49.28,-6.51 -60.89,-30.34 -10.4,-21.35 -3.98,-44.41 18.54,-52.72 11.84,-4.37 25.3,-5.57 38.74,-5.57 10.28,0 20.54,0.7 30.02,1.22 20.41,1.13 41.05,3.85 60.56,10.09 15.26,4.88 34.5,13.97 37.15,32 5.23,35.77 -43.12,40.02 -77.08,40.03 -13.97,2.54 -30.71,5.29 -47.04,5.29 m 1633.77,-32.03 c -11.91,0 -23.14,-3.43 -29.08,-13.77 -14.23,-24.7 28.5,-37.44 44.03,-40.96 3.51,-0.8 8.47,-1.31 13.98,-1.31 18.79,0 43.99,5.94 39.81,26.57 -2.74,13.5 -12.71,20.94 -25.05,24.63 -0.56,2.01 -2.15,3.54 -5.13,3.86 -2.38,0.25 -4.78,0.38 -7.18,0.38 -4.14,0 -8.28,-0.38 -12.33,-1.17 -0.9,-0.02 -1.82,-0.02 -2.74,-0.04 -5.29,1.1 -10.87,1.81 -16.31,1.81 m -2558.71,6.46 c -1.082,0 -2.332,-0.28 -3.789,-0.99 -14.039,-6.92 -28.496,-12.63 -43.098,-18.17 -5.012,-1.91 -9.008,-10.19 -4.414,-14.42 10.875,-9.97 26.484,-13.44 41.836,-13.44 8.773,0 17.465,1.13 25.137,2.83 10.363,2.3 21.128,7.03 28.671,14.72 5.481,5.59 14.172,14.62 14.192,23.29 0.019,4.32 -1.559,7.16 -4.238,8.87 l 0.406,0.72 c 2.347,4.4 1.394,10.23 -4.195,10.96 -2.243,0.29 -4.489,0.42 -6.735,0.42 -15.082,0 -30.074,-6.21 -43.226,-14.81 -0.18,0.01 -0.36,0.02 -0.547,0.02 m 2442.68,85.1 c -23.96,0 -54.67,-8.74 -74.37,-17.92 -11.51,-2.13 -22.66,-5.75 -32.05,-13.04 -3.75,-2.93 -6.5,-9.35 -2.45,-13.23 18.11,-17.28 50.11,-22.13 73.8,-23.85 3.14,-0.23 6.44,-0.36 9.84,-0.36 22.41,0 48.78,5.83 57.35,28.64 11.23,29.86 -6.62,39.76 -32.12,39.76"
         style="fill:#703921;fill-opacity:1;fill-rule:nonzero;stroke:none"
         id="path14" />
      <path
         d="m 3235.86,217.551 c -133.37,56.039 -241.17,162.801 -364.47,238.41 -68.31,41.867 -142.97,77.121 -221.34,77.121 -24.75,0 -49.87,-3.512 -75.28,-11.453 -84.7,-26.438 -162.46,-69.469 -251.57,-69.469 -9.78,0 -19.68,0.512 -29.76,1.629 -100.54,11.121 -190.71,55.941 -285.46,88.25 -51.49,17.551 -105.48,32.941 -160.3,32.941 -1.88,0 -3.75,-0.019 -5.63,-0.058 C 1781.43,573.75 1720.2,558.398 1662.48,540.328 1537.3,501.172 1419.86,442.172 1305.08,378.93 1203.8,323.129 1099.89,279.199 983.305,272.012 c -14.86,-0.922 -29.703,-1.364 -44.528,-1.364 -103.168,0 -205.144,21.582 -302.582,56.161 -114.574,40.64 -227.379,95.929 -348.8,112.671 -27.262,3.758 -54.782,5.93 -82.254,5.93 -36.028,0 -71.977,-3.73 -107.2035,-12.5 C 64.2734,424.512 31.9688,412.512 0,399.531 v 864.539 c 86.3008,30.02 171.383,66.32 261.297,66.32 16.152,0 32.465,-1.17 48.961,-3.76 77.664,-12.18 150.262,-48.6 221.953,-79.3 70.727,-30.26 144.879,-52.04 219.844,-68.47 104.023,-22.81 210.336,-32.27 316.685,-32.27 51.34,0 102.7,2.2 153.78,6.18 148.12,11.53 283.39,71.94 427.95,100.48 36.47,7.21 72.37,10.48 108.23,10.48 40.73,0 81.4,-4.23 122.76,-11.74 79.02,-14.35 156.31,-37.1 234.62,-54.8 51.74,-11.69 105.27,-22.69 158.4,-24.14 2.8,-0.08 5.6,-0.11 8.4,-0.11 40.64,0 80.9,7.79 121.38,11.77 11.96,0.3 23.91,0.42 35.87,0.42 37.88,0 75.79,-1.25 113.58,-2.26 26.55,-0.71 53,-1.14 79.42,-1.14 54.47,0 108.78,1.85 163.32,6.98 82.26,7.74 164.21,19.21 246.87,21.85 7.88,0.25 15.72,0.37 23.56,0.37 57.24,0 113.25,-6.59 168.98,-18.51 V 217.551 m -2139.4,263.398 c -2.94,0 -6.04,-1.469 -8.45,-2.789 -5.8,-3.148 -15.3,-10.531 -13.44,-18.332 1,-4.117 6.69,-5.25 10.11,-5.707 1.37,-0.18 2.78,-0.269 4.19,-0.269 3.74,0 7.54,0.628 10.99,1.867 4.39,1.601 6.06,5.09 6.38,9.703 0.3,4.539 -0.49,11.148 -4.98,13.457 -0.62,0.762 -1.45,1.391 -2.58,1.75 -0.72,0.223 -1.47,0.32 -2.22,0.32 m -234.565,94.5 c -2.282,0 -4.688,-1.148 -6.543,-2.16 -4.504,-2.449 -11.875,-8.16 -10.411,-14.211 0.762,-3.18 5.172,-4.078 7.825,-4.418 1.074,-0.14 2.172,-0.219 3.273,-0.219 2.891,0 5.824,0.489 8.496,1.481 3.395,1.219 4.699,3.906 4.934,7.5 0.234,3.508 -0.383,8.629 -3.86,10.43 l -2.004,1.347 c -0.554,0.18 -1.128,0.25 -1.71,0.25 m -451.516,27.903 c -4.383,0 -8.996,-2.192 -12.594,-4.141 -8.648,-4.68 -22.801,-15.699 -20.027,-27.332 1.48,-6.098 9.972,-7.82 15.078,-8.488 2.051,-0.27 4.148,-0.411 6.258,-0.411 5.562,0 11.219,0.942 16.351,2.809 6.551,2.371 9.043,7.563 9.496,14.422 0.442,6.777 -0.726,16.629 -7.41,20.051 -0.914,1.16 -2.144,2.097 -3.855,2.617 -1.071,0.332 -2.176,0.473 -3.297,0.473 M 2593.05,630 c -4.39,0 -9.02,-2.199 -12.62,-4.148 -8.62,-4.692 -22.79,-15.692 -20,-27.321 1.47,-6.121 9.96,-7.82 15.05,-8.511 2.04,-0.27 4.12,-0.399 6.22,-0.399 5.59,0 11.28,0.938 16.4,2.809 6.55,2.359 9.04,7.558 9.48,14.422 0.46,6.789 -0.71,16.617 -7.4,20.058 -0.91,1.172 -2.15,2.09 -3.86,2.621 -1.06,0.328 -2.16,0.469 -3.27,0.469 m -1579.82,68.602 c -4.14,0 -8.49,-2.071 -11.89,-3.903 -8.156,-4.437 -21.5,-14.808 -18.875,-25.769 1.402,-5.77 9.394,-7.379 14.207,-8.008 1.933,-0.262 3.918,-0.391 5.908,-0.391 5.25,0 10.58,0.891 15.43,2.641 6.17,2.25 8.52,7.117 8.94,13.617 0.42,6.371 -0.69,15.66 -6.97,18.891 -0.87,1.109 -2.05,1.992 -3.65,2.468 -1.01,0.313 -2.05,0.454 -3.1,0.454 m -402.226,27.589 c -0.988,0 -1.984,-0.113 -2.984,-0.363 -6.047,-1.496 -7.735,-10.078 -8.411,-15.238 -0.992,-7.551 -0.156,-15.719 2.379,-22.891 2.34,-6.621 7.477,-9.129 14.25,-9.597 0.813,-0.063 1.668,-0.09 2.555,-0.09 6.414,0 14.281,1.636 17.273,7.59 1.145,0.918 2.071,2.168 2.571,3.898 1.597,5.301 -1.199,11.512 -3.614,16.082 -4.242,7.957 -13.675,20.609 -24.019,20.609 M 1612.95,737.09 c -0.99,0 -1.98,-0.11 -2.99,-0.36 -6.04,-1.492 -7.72,-10.07 -8.41,-15.242 -0.97,-7.539 -0.16,-15.707 2.37,-22.886 2.35,-6.622 7.48,-9.141 14.28,-9.602 0.8,-0.051 1.65,-0.078 2.53,-0.078 6.4,0 14.28,1.629 17.29,7.566 1.13,0.934 2.05,2.184 2.56,3.91 1.59,5.301 -1.2,11.5 -3.62,16.071 -4.24,7.992 -13.66,20.621 -24.01,20.621 m 1180.72,15.73 c -0.99,0 -1.99,-0.109 -2.99,-0.359 -6.05,-1.481 -7.75,-10.063 -8.4,-15.242 -1,-7.547 -0.18,-15.707 2.36,-22.867 2.34,-6.633 7.47,-9.153 14.25,-9.602 0.82,-0.059 1.68,-0.09 2.57,-0.09 6.41,0 14.27,1.641 17.26,7.57 1.14,0.942 2.07,2.18 2.58,3.899 1.6,5.32 -1.21,11.531 -3.62,16.082 -4.24,7.98 -13.68,20.609 -24.01,20.609 M 60.9063,744.148 c -3.3907,0 -6.9688,-1.699 -9.7579,-3.207 -6.707,-3.652 -17.6875,-12.171 -15.5195,-21.179 1.1484,-4.731 7.7149,-6.063 11.6797,-6.59 1.5898,-0.211 3.2148,-0.313 4.8477,-0.313 4.3085,0 8.6875,0.731 12.6718,2.18 5.0742,1.832 7.0078,5.852 7.3633,11.18 0.3516,5.25 -0.5703,12.859 -5.7422,15.531 -0.7109,0.91 -1.6836,1.629 -3,2.039 -0.8242,0.25 -1.6797,0.359 -2.5429,0.359 M 2243.56,770.789 c -3.4,0 -6.97,-1.699 -9.75,-3.207 -6.71,-3.641 -17.69,-12.172 -15.52,-21.172 1.14,-4.75 7.7,-6.082 11.68,-6.609 1.58,-0.199 3.19,-0.313 4.82,-0.313 4.31,0 8.7,0.731 12.7,2.192 5.06,1.84 7,5.851 7.35,11.179 0.35,5.25 -0.56,12.879 -5.73,15.539 -0.72,0.891 -1.67,1.622 -2.98,2.024 -0.84,0.25 -1.7,0.367 -2.57,0.367 M 920.148,865.16 c -1.398,0 -2.804,-0.16 -4.218,-0.512 -8.496,-2.089 -10.864,-14.148 -11.805,-21.398 -1.375,-10.602 -0.223,-22.078 3.324,-32.141 3.305,-9.308 10.512,-12.859 20.047,-13.488 1.145,-0.082 2.352,-0.133 3.602,-0.133 9.004,0 20.054,2.313 24.238,10.641 1.602,1.312 2.906,3.062 3.625,5.492 2.246,7.469 -1.68,16.16 -5.09,22.578 -5.953,11.211 -19.195,28.961 -33.723,28.961 M 1922.1,876.059 c -1.4,0 -2.8,-0.161 -4.21,-0.508 -8.52,-2.09 -10.88,-14.141 -11.82,-21.403 -1.38,-10.589 -0.25,-22.089 3.33,-32.148 3.3,-9.301 10.51,-12.84 20.05,-13.48 1.14,-0.079 2.34,-0.129 3.59,-0.129 9,0 20.05,2.308 24.24,10.64 1.6,1.321 2.91,3.059 3.63,5.489 2.23,7.46 -1.7,16.171 -5.08,22.589 -5.97,11.2 -19.21,28.95 -33.73,28.95 m 1180.69,15.742 c -1.39,0 -2.8,-0.16 -4.21,-0.512 -8.49,-2.09 -10.86,-14.148 -11.79,-21.398 -1.39,-10.602 -0.23,-22.082 3.32,-32.153 3.31,-9.297 10.5,-12.828 20.04,-13.488 1.14,-0.078 2.35,-0.129 3.6,-0.129 9,0 20.06,2.32 24.24,10.641 1.61,1.316 2.91,3.078 3.63,5.5 2.24,7.457 -1.68,16.168 -5.09,22.578 -5.95,11.219 -19.2,28.961 -33.74,28.961 m -2816.446,35.84 c -6.153,0 -12.617,-3.082 -17.664,-5.821 -12.149,-6.601 -32.043,-22.058 -28.125,-38.39 2.086,-8.59 13.98,-10.981 21.144,-11.95 2.879,-0.378 5.824,-0.57 8.781,-0.57 7.833,0 15.782,1.328 23.004,3.949 9.196,3.34 12.7,10.621 13.34,20.27 0.625,9.519 -1.035,23.351 -10.398,28.18 -1.293,1.621 -3.031,2.921 -5.426,3.66 -1.512,0.461 -3.074,0.672 -4.656,0.672 M 2469.02,954.27 c -6.15,0 -12.63,-3.071 -17.69,-5.809 -12.15,-6.609 -32.05,-22.07 -28.11,-38.402 2.06,-8.59 13.97,-10.989 21.13,-11.938 2.89,-0.383 5.85,-0.57 8.82,-0.57 7.82,0 15.76,1.328 22.97,3.937 9.22,3.332 12.7,10.633 13.34,20.293 0.63,9.508 -1.03,23.34 -10.4,28.16 -1.3,1.629 -3.03,2.938 -5.43,3.668 -1.5,0.461 -3.06,0.661 -4.63,0.661 m -1712.52,118 c -0.77,0 -1.547,-0.09 -2.328,-0.29 -4.692,-1.15 -5.992,-7.79 -6.512,-11.81 -0.75,-5.84 -0.121,-12.18 1.836,-17.72 1.817,-5.13 5.793,-7.09 11.059,-7.44 0.629,-0.04 1.293,-0.07 1.976,-0.07 4.961,0 11.051,1.28 13.371,5.86 0.899,0.74 1.614,1.69 2.024,3.04 1.215,4.12 -0.938,8.9 -2.828,12.45 -3.278,6.2 -10.59,15.98 -18.598,15.98 m 1001.93,10.9 c -0.77,0 -1.54,-0.09 -2.32,-0.28 -4.67,-1.15 -5.99,-7.8 -6.51,-11.82 -0.76,-5.85 -0.12,-12.17 1.84,-17.72 1.82,-5.13 5.8,-7.08 11.05,-7.45 0.62,-0.04 1.27,-0.06 1.95,-0.06 4.97,0 11.09,1.26 13.41,5.87 0.88,0.72 1.61,1.69 2,3.03 1.24,4.11 -0.93,8.91 -2.81,12.45 -3.27,6.19 -10.59,15.98 -18.61,15.98 m 1180.72,15.74 c -0.77,0 -1.55,-0.09 -2.33,-0.28 -4.69,-1.17 -5.99,-7.8 -6.5,-11.81 -0.75,-5.85 -0.13,-12.19 1.82,-17.73 1.83,-5.14 5.81,-7.08 11.07,-7.43 0.63,-0.05 1.3,-0.07 2,-0.07 4.96,0 11.05,1.27 13.36,5.86 0.88,0.71 1.6,1.68 2,3.02 1.24,4.11 -0.94,8.92 -2.81,12.46 -3.29,6.19 -10.59,15.98 -18.61,15.98"
         style="fill:#5f2d1b;fill-opacity:1;fill-rule:nonzero;stroke:none"
         id="path16" />
      <path
         d="m 3235.86,0 h -53 c 1.37,0.859375 2.71,1.78125 4.01,2.75 10.38,7.8008 16.1,22.7813 11.17,35.3398 -5.64,14.3399 -23.23,19.6993 -36.8,22.5704 -11.99,2.5312 -24.44,3.9296 -36.81,3.9296 -5.33,0 -10.64,-0.2578 -15.89,-0.8007 -3.15,-0.3282 -5.35,-3.1797 -5.96,-6.0782 C 3085.92,54 3070.19,46.0508 3059.1,34.4688 c -8.18,-8.5391 -10.71,-20.25 -2.96,-29.75786 1.43,-1.76953 3.12,-3.33203 5,-4.71094 h -279.17 c 3.3,17.3203 2.86,35.6406 -0.09,51.2383 -4.18,22.0937 -20.7,30.9101 -39.66,30.9101 -4.64,0 -9.42,-0.5273 -14.2,-1.5195 -30.07,-6.1797 -58.2,-24.1406 -82.7,-42.0976 C 2630.52,27.6719 2613.89,15 2601.25,0 h -532.76 c 4.23,5.28125 8.04,10.9297 11.34,16.9102 17.36,31.4882 22.46,85.2308 -9.56,109.3788 -12.79,9.652 -28.79,12.781 -45.4,12.781 -20.03,0 -40.94,-4.55 -58.16,-7.679 -6.65,-1.211 -13.28,-2.442 -19.95,-3.59 -2.41,-0.41 -4.26,-2.313 -5.26,-4.5 -8.41,0.258 -16.83,0.41 -25.26,0.41 -19.16,0 -38.38,-0.801 -57.39,-3.41 -14.27,-1.93 -29.64,-5.012 -42.04,-12.879 -24.96,-15.8829 -19.9,-46.6017 -3.89,-66.7618 12.99,-16.3204 29.97,-29.4297 48,-40.6602 L 1549.6,0 c 2.29,14.0313 -1.95,25.8906 -19.03,29.3398 -3.21,0.6407 -6.55,0.9219 -9.94,0.9219 -11.94,0 -24.66,-3.4219 -35.53,-6.1836 -17.12,-4.3398 -34.27,-10.5586 -48.9,-20.73826 -1.46,-1.01171 -2.91,-2.1289 -4.32,-3.33984 h -220.37 c 11.53,5.53125 22.45,12.2109 32.47,19.9219 15.84,12.1679 28.51,27.9687 39.25,44.7773 6.8,10.5899 12.88,22.8516 13.64,35.6718 1.26,21.277 -18.42,29.668 -36.09,31.91 -5.51,0.707 -11.1,1.02 -16.71,1.02 -6.1,0 -12.24,-0.371 -18.37,-1 -7.38,0.687 -14.84,1.097 -22.28,1.097 -14.4,0 -28.72,-1.527 -42.14,-5.476 -0.33,0.09 -0.69,0.137 -1.1,0.137 -0.5,0 -1.07,-0.079 -1.7,-0.258 -30.49,-8.18 -61.34,-15.942 -90.07,-29.4299 -21.89,-10.2813 -52.56,-30.0391 -44.3,-58.9727 4.74,-16.6796 20.4,-29.42965 34.47,-37.82809 0.9,-0.53125 1.8,-1.058591 2.71,-1.57031 L 234.871,0 c -9.75,12.3008 -35.062,14.1016 -54.269,14.1094 -10.532,1.9219 -23.141,3.9922 -35.446,3.9922 -17.125,0 -33.652,-4.0235 -43.121,-18.1016 H 0 v 399.531 c 31.9688,12.981 64.2734,24.981 97.9375,33.379 35.2265,8.77 71.1755,12.5 107.2035,12.5 27.472,0 54.992,-2.172 82.254,-5.93 121.421,-16.742 234.226,-72.031 348.8,-112.671 97.438,-34.579 199.414,-56.161 302.582,-56.161 14.825,0 29.668,0.442 44.528,1.364 116.585,7.187 220.495,51.117 321.775,106.918 114.78,63.242 232.22,122.242 357.4,161.398 57.72,18.07 118.95,33.422 179.57,34.594 1.88,0.039 3.75,0.058 5.63,0.058 54.82,0 108.81,-15.39 160.3,-32.941 94.75,-32.309 184.92,-77.129 285.46,-88.25 10.08,-1.117 19.98,-1.629 29.76,-1.629 89.11,0 166.87,43.031 251.57,69.469 25.41,7.941 50.53,11.453 75.28,11.453 78.37,0 153.03,-35.254 221.34,-77.121 123.3,-75.609 231.1,-182.371 364.47,-238.41 L 3235.86,0 M 668.383,197.172 c -7.738,0 -15.485,-0.672 -23.223,-2.461 -15.262,-3.539 -28.484,-13.379 -34.375,-28.289 -7.586,-19.25 -0.59,-39.742 10.028,-56.281 19.914,-31.0121 53.765,-52.7308 90.003,-52.7308 5.911,0 11.883,0.5781 17.872,1.789 43.933,8.8828 74.375,49.8128 75.644,94.0628 0.566,20.027 -8.293,37.359 -27.988,43.117 -6.614,1.93 -13.528,2.699 -20.543,2.699 -14.235,0 -28.887,-3.148 -42.254,-6.066 -15.047,1.636 -30.102,4.16 -45.164,4.16 m 825.867,13.277 c -8.79,0 -17.44,-1.379 -25.28,-5.258 -14.38,-7.101 -25.04,-22.363 -18.86,-38.359 6.12,-15.91 26.91,-25.562 41.28,-31.66 26.04,-11.063 56.29,-14.481 84.56,-14.481 2.17,0 4.32,0.02 6.46,0.059 23.38,0.422 68.98,5.66 65.38,39.289 -1.83,17.211 -23.2,25.781 -37.01,30.25 -16.57,5.359 -34.68,8.32 -52.1,8.449 l -2.58,-0.648 c -10.18,3.269 -20.44,6.148 -30.89,8.34 -9.78,2.05 -20.47,4.019 -30.96,4.019 M 944.977,197.961 c -2.418,0 -4.84,-0.133 -7.278,-0.449 -13.535,-1.762 -22.254,-14.223 -22.488,-27.512 -0.508,-27.172 38.66,-40.309 59.844,-42.078 1.117,-0.094 2.246,-0.141 3.394,-0.141 22.661,0 51.251,17.649 62.021,36.598 6.08,10.691 1.98,21.902 -8.34,27.66 -8.99,5.039 -18.14,6.402 -27.41,6.402 -5.486,0 -11.013,-0.48 -16.575,-0.961 -5.567,-0.468 -11.165,-0.949 -16.793,-0.949 -2.704,0 -5.414,0.11 -8.129,0.379 l -2.129,-0.25 c -5.356,0.649 -10.715,1.301 -16.117,1.301 m 413.953,-12.609 c -8.96,0 -17.4,-2.582 -21.87,-10.364 -10.72,-18.617 21.47,-28.207 33.16,-30.867 2.65,-0.601 6.39,-0.992 10.54,-0.992 14.16,0 33.12,4.48 29.98,20.019 -2.06,10.172 -9.58,15.782 -18.87,18.563 -0.42,1.508 -1.61,2.66 -3.86,2.891 -1.8,0.187 -3.62,0.289 -5.44,0.289 -3.1,0 -6.21,-0.289 -9.26,-0.879 l -2.07,-0.043 c -3.99,0.84 -8.2,1.383 -12.31,1.383 m 1253.29,95.726 c -9.49,0 -19.37,-2.316 -27.04,-4.746 -12.49,-3.941 -25.27,-9.531 -36.88,-16.742 -9.95,-2.969 -19.6,-7.461 -28.6,-11.91 -16.88,-8.348 -34.05,-18.969 -46.38,-33.559 -9.75,-11.519 -11.78,-26.582 -3.9,-39.742 8.6,-14.328 26.34,-21.969 41.53,-26.328 8.84,-2.52 18.51,-4.313 28.04,-4.313 6.23,0 12.4,0.762 18.23,2.594 15.58,4.867 29.26,16.828 40.85,27.957 14.64,14.012 27.86,29.91 37.38,47.941 7.06,13.352 12.16,29.52 5.21,43.879 -5.5,11.391 -16.66,14.969 -28.44,14.969 m -840.18,-77.09 c -15.27,0 -30.17,-2.078 -43.47,-9.047 -2.61,-1.402 -5.82,-5.043 -4.69,-8.382 10.07,-29.868 45.84,-38.731 76.59,-38.731 8.08,0 15.82,0.613 22.65,1.613 14.11,2.079 46.44,12.547 41.79,32.629 -4.19,18.078 -20.19,21.258 -36.27,21.258 -8.01,0 -16.04,-0.789 -22.63,-0.918 l -2.08,-0.488 c -10.53,1.066 -21.3,2.066 -31.89,2.066 m 1131.99,77.782 c -33.37,0 -61.82,-17.59 -81.87,-46.168 -1.41,-2.024 -3.02,-5.133 -1.39,-7.571 30.07,-45.23 87.24,-64.281 138.69,-68.121 5.81,-0.43 11.71,-0.648 17.67,-0.648 48.17,0 99.63,14.679 130.96,52.949 2.1,2.559 2.9,6.09 0.52,8.711 -18.59,20.359 -46.43,27.91 -72.46,32.867 -18.35,3.5 -36.96,5.133 -55.5,7.242 -19.38,8.5 -39.15,15.821 -60.08,19.34 -5.63,0.949 -11.15,1.399 -16.54,1.399 m -782.21,-69.11 c -18.18,0 -38.19,-3.43 -53.67,-10.871 -1.21,-0.59 -2.32,-1.578 -3.17,-2.73 -3.6,-2.149 -6.04,-7.887 -2.88,-10.879 2.58,-2.379 5.34,-4.461 8.22,-6.289 l 0.38,-0.801 c 1.43,-2.59 5.45,-4.149 7.95,-5.41 8.96,-4.43 18.94,-7.121 28.62,-9.2 7.38,-1.582 16.5,-3.23 25.42,-3.23 12.43,0 24.46,3.199 30.82,14.238 4.16,7.231 3.48,18.141 -2.1,24.403 -6.54,7.359 -17.14,9.218 -26.43,10.14 -4.21,0.418 -8.63,0.629 -13.16,0.629 M 413.484,277.559 c -5.648,0 -11.418,-0.68 -17.035,-1.547 -16.851,-2.621 -34.265,-7.922 -50.328,-15.203 -28.324,-4.778 -55.594,-13.137 -78.008,-32.68 -2.23,-1.93 -4.707,-5.828 -2.726,-8.828 5.922,-9.102 16.164,-14.551 25.613,-19.16 14.461,-7.09 30.055,-11.922 45.555,-16.071 26.734,-7.172 55.371,-12.789 83.429,-12.789 5.329,0 10.637,0.199 15.903,0.629 10.398,0.871 22.043,2.629 30.351,9.551 10.141,8.48 9.004,22.379 5.907,34.027 -4.981,18.633 -15.547,36.973 -28.778,50.844 -8.265,8.656 -18.859,11.227 -29.883,11.227 M 1271.56,254.32 c -18.04,0 -41.17,-6.59 -56.02,-13.5 -8.67,-1.609 -17.05,-4.351 -24.13,-9.832 -2.85,-2.187 -4.9,-7.039 -1.83,-9.949 13.63,-13.027 37.72,-16.668 55.56,-17.98 2.36,-0.18 4.83,-0.278 7.38,-0.278 16.89,0 36.77,4.41 43.24,21.578 8.45,22.493 -4.99,29.961 -24.2,29.961 m 1162.42,90.36 c -1.67,0 -3.36,-0.102 -5.07,-0.321 -13.34,-1.66 -19.3,-11.949 -19.18,-24.05 0.12,-13.559 1.27,-27.207 2.73,-40.688 0.96,-8.922 1.94,-16.672 12.35,-18.242 1.47,-0.231 2.95,-0.328 4.43,-0.328 10.91,0 21.97,5.64 31.05,10.929 11.66,6.809 23.26,15.54 31.27,26.598 15.98,22.051 -5.26,29.621 -24.63,35.82 -10.44,5.422 -21.27,10.282 -32.95,10.282 M 166.414,378.578 c -18.805,0 -37.965,-11.148 -49.426,-26.047 l -0.699,-0.453 c -24.7148,-18.129 -29.8984,-48.726 -7.078,-70.859 10.344,-10.039 23.18,-14.809 36.008,-14.809 14.648,0 29.289,6.231 40.191,17.942 19.75,21.199 34.02,68.898 3.945,87.757 -7.183,4.5 -15.031,6.469 -22.941,6.469 M 2751.11,367.289 c -5.89,0 -11.56,-1.051 -15.17,-4.32 l -0.76,-0.168 c -3.54,-0.93 -7.28,-4.871 -6.24,-8.891 5.61,-21.359 26.85,-31.808 48.12,-31.808 14.61,0 29.25,4.929 38.83,14.636 2.27,2.301 2.8,6.301 0.52,8.692 -1.23,1.289 -2.58,2.468 -4.01,3.582 -0.38,1.07 -1.18,2 -2.63,2.636 -1.3,0.571 -2.6,1.114 -3.92,1.653 -10.87,5.988 -24.61,9.16 -35.37,11.449 -4.57,0.961 -12.14,2.539 -19.37,2.539"
         style="fill:#4f2419;fill-opacity:1;fill-rule:nonzero;stroke:none"
         id="path18" />
      <path
         d="m 2429.24,261.051 c -1.48,0 -2.96,0.097 -4.43,0.328 -10.41,1.57 -11.39,9.32 -12.35,18.242 -1.46,13.481 -2.61,27.129 -2.73,40.688 -0.12,12.101 5.84,22.39 19.18,24.05 1.71,0.219 3.4,0.321 5.07,0.321 11.68,0 22.51,-4.86 32.95,-10.282 19.37,-6.199 40.61,-13.769 24.63,-35.82 -8.01,-11.058 -19.61,-19.789 -31.27,-26.598 -9.08,-5.289 -20.14,-10.929 -31.05,-10.929"
         style="fill:#421f16;fill-opacity:1;fill-rule:nonzero;stroke:none"
         id="path20" />
      <path
         d="m 2538.99,143.738 c -9.53,0 -19.2,1.793 -28.04,4.313 -15.19,4.359 -32.93,12 -41.53,26.328 -7.88,13.16 -5.85,28.223 3.9,39.742 12.33,14.59 29.5,25.211 46.38,33.559 9,4.449 18.65,8.941 28.6,11.91 11.61,7.211 24.39,12.801 36.88,16.742 7.67,2.43 17.55,4.746 27.04,4.746 11.78,0 22.94,-3.578 28.44,-14.969 6.95,-14.359 1.85,-30.527 -5.21,-43.879 -9.52,-18.031 -22.74,-33.929 -37.38,-47.941 -11.59,-11.129 -25.27,-23.09 -40.85,-27.957 -5.83,-1.832 -12,-2.594 -18.23,-2.594"
         style="fill:#421f16;fill-opacity:1;fill-rule:nonzero;stroke:none"
         id="path22" />
      <path
         d="m 2781.97,0 h -180.72 c 12.64,15 29.27,27.6719 44.07,38.5313 24.5,17.957 52.63,35.9179 82.7,42.0976 4.78,0.9922 9.56,1.5195 14.2,1.5195 18.96,0 35.48,-8.8164 39.66,-30.9101 2.95,-15.5977 3.39,-33.918 0.09,-51.2383"
         style="fill:#421f16;fill-opacity:1;fill-rule:nonzero;stroke:none"
         id="path24" />
      <path
         d="m 2777.06,322.102 c -21.27,0 -42.51,10.449 -48.12,31.808 -1.04,4.02 2.7,7.961 6.24,8.891 l 0.76,0.168 c 3.61,3.269 9.28,4.32 15.17,4.32 7.23,0 14.8,-1.578 19.37,-2.539 10.76,-2.289 24.5,-5.461 35.37,-11.449 1.32,-0.539 2.62,-1.082 3.92,-1.653 1.45,-0.636 2.25,-1.566 2.63,-2.636 1.43,-1.114 2.78,-2.293 4.01,-3.582 2.28,-2.391 1.75,-6.391 -0.52,-8.692 -9.58,-9.707 -24.22,-14.636 -38.83,-14.636"
         style="fill:#421f16;fill-opacity:1;fill-rule:nonzero;stroke:none"
         id="path26" />
      <path
         d="m 2977.13,159.262 c -5.96,0 -11.86,0.218 -17.67,0.648 -51.45,3.84 -108.62,22.891 -138.69,68.121 -1.63,2.438 -0.02,5.547 1.39,7.571 20.05,28.578 48.5,46.168 81.87,46.168 5.39,0 10.91,-0.45 16.54,-1.399 20.93,-3.519 40.7,-10.84 60.08,-19.34 18.54,-2.109 37.15,-3.742 55.5,-7.242 26.03,-4.957 53.87,-12.508 72.46,-32.867 2.38,-2.621 1.58,-6.152 -0.52,-8.711 -31.33,-38.27 -82.79,-52.949 -130.96,-52.949"
         style="fill:#421f16;fill-opacity:1;fill-rule:nonzero;stroke:none"
         id="path28" />
      <path
         d="m 3182.86,0 h -121.72 c -1.88,1.37891 -3.57,2.94141 -5,4.71094 -7.75,9.50786 -5.22,21.21876 2.96,29.75786 11.09,11.582 26.82,19.5312 43.48,23.2421 0.61,2.8985 2.81,5.75 5.96,6.0782 5.25,0.5429 10.56,0.8007 15.89,0.8007 12.37,0 24.82,-1.3984 36.81,-3.9296 13.57,-2.8711 31.16,-8.2305 36.8,-22.5704 4.93,-12.5585 -0.79,-27.539 -11.17,-35.3398 -1.3,-0.96875 -2.64,-1.890625 -4.01,-2.75"
         style="fill:#421f16;fill-opacity:1;fill-rule:nonzero;stroke:none"
         id="path30" />
      <path
         d="m 145.219,266.41 c -12.828,0 -25.664,4.77 -36.008,14.809 -22.8204,22.133 -17.6368,52.73 7.078,70.859 l 0.699,0.453 c 11.461,14.899 30.621,26.047 49.426,26.047 7.91,0 15.758,-1.969 22.941,-6.469 C 219.43,353.25 205.16,305.551 185.41,284.352 174.508,272.641 159.867,266.41 145.219,266.41"
         style="fill:#421f16;fill-opacity:1;fill-rule:nonzero;stroke:none"
         id="path32" />
      <path
         d="m 419.984,171.281 c -28.058,0 -56.695,5.617 -83.429,12.789 -15.5,4.149 -31.094,8.981 -45.555,16.071 -9.449,4.609 -19.691,10.058 -25.613,19.16 -1.981,3 0.496,6.898 2.726,8.828 22.414,19.543 49.684,27.902 78.008,32.68 16.063,7.281 33.477,12.582 50.328,15.203 5.617,0.867 11.387,1.547 17.035,1.547 11.024,0 21.618,-2.571 29.883,-11.227 13.231,-13.871 23.797,-32.211 28.778,-50.844 3.097,-11.648 4.234,-25.547 -5.907,-34.027 -8.308,-6.922 -19.953,-8.68 -30.351,-9.551 -5.266,-0.43 -10.574,-0.629 -15.903,-0.629"
         style="fill:#421f16;fill-opacity:1;fill-rule:nonzero;stroke:none"
         id="path34" />
      <path
         d="M 234.871,0 H 102.035 c 9.469,14.0781 25.996,18.1016 43.121,18.1016 12.305,0 24.914,-2.0703 35.446,-3.9922 C 199.809,14.1016 225.121,12.3008 234.871,0"
         style="fill:#421f16;fill-opacity:1;fill-rule:nonzero;stroke:none"
         id="path36" />
      <path
         d="m 710.816,57.4102 c -36.238,0 -70.089,21.7187 -90.003,52.7308 -10.618,16.539 -17.614,37.031 -10.028,56.281 5.891,14.91 19.113,24.75 34.375,28.289 7.738,1.789 15.485,2.461 23.223,2.461 15.062,0 30.117,-2.524 45.164,-4.16 13.367,2.918 28.019,6.066 42.254,6.066 7.015,0 13.929,-0.769 20.543,-2.699 19.695,-5.758 28.554,-23.09 27.988,-43.117 -1.269,-44.25 -31.711,-85.18 -75.644,-94.0628 -5.989,-1.2109 -11.961,-1.789 -17.872,-1.789"
         style="fill:#421f16;fill-opacity:1;fill-rule:nonzero;stroke:none"
         id="path38" />
      <path
         d="m 978.449,127.781 c -1.148,0 -2.277,0.047 -3.394,0.141 -21.184,1.769 -60.352,14.906 -59.844,42.078 0.234,13.289 8.953,25.75 22.488,27.512 2.438,0.316 4.86,0.449 7.278,0.449 5.402,0 10.761,-0.652 16.117,-1.301 l 2.129,0.25 c 2.715,-0.269 5.425,-0.379 8.129,-0.379 5.628,0 11.226,0.481 16.793,0.949 5.562,0.481 11.089,0.961 16.575,0.961 9.27,0 18.42,-1.363 27.41,-6.402 10.32,-5.758 14.42,-16.969 8.34,-27.66 -10.77,-18.949 -39.36,-36.598 -62.021,-36.598"
         style="fill:#421f16;fill-opacity:1;fill-rule:nonzero;stroke:none"
         id="path40" />
      <path
         d="m 1211.51,0 h -150.22 c -0.91,0.511719 -1.81,1.03906 -2.71,1.57031 -14.07,8.39844 -29.73,21.14849 -34.47,37.82809 -8.26,28.9336 22.41,48.6914 44.3,58.9727 28.73,13.4879 59.58,21.2499 90.07,29.4299 0.63,0.179 1.2,0.258 1.7,0.258 0.41,0 0.77,-0.047 1.1,-0.137 13.42,3.949 27.74,5.476 42.14,5.476 7.44,0 14.9,-0.41 22.28,-1.097 6.13,0.629 12.27,1 18.37,1 5.61,0 11.2,-0.313 16.71,-1.02 17.67,-2.242 37.35,-10.633 36.09,-31.91 -0.76,-12.8202 -6.84,-25.0819 -13.64,-35.6718 C 1272.49,47.8906 1259.82,32.0898 1243.98,19.9219 1233.96,12.2109 1223.04,5.53125 1211.51,0"
         style="fill:#421f16;fill-opacity:1;fill-rule:nonzero;stroke:none"
         id="path42" />
      <path
         d="m 1252.52,202.781 c -2.55,0 -5.02,0.098 -7.38,0.278 -17.84,1.312 -41.93,4.953 -55.56,17.98 -3.07,2.91 -1.02,7.762 1.83,9.949 7.08,5.481 15.46,8.223 24.13,9.832 14.85,6.91 37.98,13.5 56.02,13.5 19.21,0 32.65,-7.468 24.2,-29.961 -6.47,-17.168 -26.35,-21.578 -43.24,-21.578"
         style="fill:#421f16;fill-opacity:1;fill-rule:nonzero;stroke:none"
         id="path44" />
      <path
         d="m 1380.76,143.129 c -4.15,0 -7.89,0.391 -10.54,0.992 -11.69,2.66 -43.88,12.25 -33.16,30.867 4.47,7.782 12.91,10.364 21.87,10.364 4.11,0 8.32,-0.543 12.31,-1.383 l 2.07,0.043 c 3.05,0.59 6.16,0.879 9.26,0.879 1.82,0 3.64,-0.102 5.44,-0.289 2.25,-0.231 3.44,-1.383 3.86,-2.891 9.29,-2.781 16.81,-8.391 18.87,-18.563 3.14,-15.539 -15.82,-20.019 -29.98,-20.019"
         style="fill:#421f16;fill-opacity:1;fill-rule:nonzero;stroke:none"
         id="path46" />
      <path
         d="m 1549.6,0 h -117.72 c 1.41,1.21094 2.86,2.32813 4.32,3.33984 14.63,10.17966 31.78,16.39846 48.9,20.73826 10.87,2.7617 23.59,6.1836 35.53,6.1836 3.39,0 6.73,-0.2812 9.94,-0.9219 C 1547.65,25.8906 1551.89,14.0313 1549.6,0"
         style="fill:#421f16;fill-opacity:1;fill-rule:nonzero;stroke:none"
         id="path48" />
      <path
         d="m 1575.95,120.691 c -28.27,0 -58.52,3.418 -84.56,14.481 -14.37,6.098 -35.16,15.75 -41.28,31.66 -6.18,15.996 4.48,31.258 18.86,38.359 7.84,3.879 16.49,5.258 25.28,5.258 10.49,0 21.18,-1.969 30.96,-4.019 10.45,-2.192 20.71,-5.071 30.89,-8.34 l 2.58,0.648 c 17.42,-0.129 35.53,-3.09 52.1,-8.449 13.81,-4.469 35.18,-13.039 37.01,-30.25 3.6,-33.629 -42,-38.867 -65.38,-39.289 -2.14,-0.039 -4.29,-0.059 -6.46,-0.059"
         style="fill:#421f16;fill-opacity:1;fill-rule:nonzero;stroke:none"
         id="path50" />
      <path
         d="m 1800.47,147.828 c -30.75,0 -66.52,8.863 -76.59,38.731 -1.13,3.339 2.08,6.98 4.69,8.382 13.3,6.969 28.2,9.047 43.47,9.047 10.59,0 21.36,-1 31.89,-2.066 l 2.08,0.488 c 6.59,0.129 14.62,0.918 22.63,0.918 16.08,0 32.08,-3.18 36.27,-21.258 4.65,-20.082 -27.68,-30.55 -41.79,-32.629 -6.83,-1 -14.57,-1.613 -22.65,-1.613"
         style="fill:#421f16;fill-opacity:1;fill-rule:nonzero;stroke:none"
         id="path52" />
      <path
         d="m 2068.49,0 h -207.57 c -18.03,11.2305 -35.01,24.3398 -48,40.6602 -16.01,20.1601 -21.07,50.8789 3.89,66.7618 12.4,7.867 27.77,10.949 42.04,12.879 19.01,2.609 38.23,3.41 57.39,3.41 8.43,0 16.85,-0.152 25.26,-0.41 1,2.187 2.85,4.09 5.26,4.5 6.67,1.148 13.3,2.379 19.95,3.59 17.22,3.129 38.13,7.679 58.16,7.679 16.61,0 32.61,-3.129 45.4,-12.781 32.02,-24.148 26.92,-77.8906 9.56,-109.3788 C 2076.53,10.9297 2072.72,5.28125 2068.49,0"
         style="fill:#421f16;fill-opacity:1;fill-rule:nonzero;stroke:none"
         id="path54" />
      <path
         d="m 2132.69,163.25 c -8.92,0 -18.04,1.648 -25.42,3.23 -9.68,2.079 -19.66,4.77 -28.62,9.2 -2.5,1.261 -6.52,2.82 -7.95,5.41 l -0.38,0.801 c -2.88,1.828 -5.64,3.91 -8.22,6.289 -3.16,2.992 -0.72,8.73 2.88,10.879 0.85,1.152 1.96,2.14 3.17,2.73 15.48,7.441 35.49,10.871 53.67,10.871 4.53,0 8.95,-0.211 13.16,-0.629 9.29,-0.922 19.89,-2.781 26.43,-10.14 5.58,-6.262 6.26,-17.172 2.1,-24.403 -6.36,-11.039 -18.39,-14.238 -30.82,-14.238"
         style="fill:#421f16;fill-opacity:1;fill-rule:nonzero;stroke:none"
         id="path56" />
      <path
         d="m 270.48,870.91 c -2.957,0 -5.902,0.192 -8.781,0.57 -7.164,0.969 -19.058,3.36 -21.144,11.95 -3.918,16.332 15.976,31.789 28.125,38.39 5.047,2.739 11.511,5.821 17.664,5.821 1.582,0 3.144,-0.211 4.656,-0.672 2.395,-0.739 4.133,-2.039 5.426,-3.66 9.363,-4.829 11.023,-18.661 10.398,-28.18 -0.64,-9.649 -4.144,-16.93 -13.34,-20.27 -7.222,-2.621 -15.171,-3.949 -23.004,-3.949"
         style="fill:#4f2419;fill-opacity:1;fill-rule:nonzero;stroke:none"
         id="path58" />
      <path
         d="m 399.094,562.98 c -2.11,0 -4.207,0.141 -6.258,0.411 -5.106,0.668 -13.598,2.39 -15.078,8.488 -2.774,11.633 11.379,22.652 20.027,27.332 3.598,1.949 8.211,4.141 12.594,4.141 1.121,0 2.226,-0.141 3.297,-0.473 1.711,-0.52 2.941,-1.457 3.855,-2.617 6.684,-3.422 7.852,-13.274 7.41,-20.051 -0.453,-6.859 -2.945,-12.051 -9.496,-14.422 -5.132,-1.867 -10.789,-2.809 -16.351,-2.809"
         style="fill:#4f2419;fill-opacity:1;fill-rule:nonzero;stroke:none"
         id="path60" />
      <path
         d="m 52.1563,712.859 c -1.6329,0 -3.2579,0.102 -4.8477,0.313 -3.9648,0.527 -10.5313,1.859 -11.6797,6.59 -2.168,9.008 8.8125,17.527 15.5195,21.179 2.7891,1.508 6.3672,3.207 9.7579,3.207 0.8632,0 1.7187,-0.109 2.5429,-0.359 1.3164,-0.41 2.2891,-1.129 3,-2.039 5.1719,-2.672 6.0938,-10.281 5.7422,-15.531 -0.3555,-5.328 -2.2891,-9.348 -7.3633,-11.18 -3.9843,-1.449 -8.3633,-2.18 -12.6718,-2.18"
         style="fill:#4f2419;fill-opacity:1;fill-rule:nonzero;stroke:none"
         id="path62" />
      <path
         d="m 931.098,797.488 c -1.25,0 -2.457,0.051 -3.602,0.133 -9.535,0.629 -16.742,4.18 -20.047,13.488 -3.547,10.063 -4.699,21.539 -3.324,32.141 0.941,7.25 3.309,19.309 11.805,21.398 1.414,0.352 2.82,0.512 4.218,0.512 14.528,0 27.77,-17.75 33.723,-28.961 3.41,-6.418 7.336,-15.109 5.09,-22.578 -0.719,-2.43 -2.023,-4.18 -3.625,-5.492 -4.184,-8.328 -15.234,-10.641 -24.238,-10.641"
         style="fill:#4f2419;fill-opacity:1;fill-rule:nonzero;stroke:none"
         id="path64" />
      <path
         d="m 618.793,678.012 c -0.887,0 -1.742,0.027 -2.555,0.09 -6.773,0.468 -11.91,2.976 -14.25,9.597 -2.535,7.172 -3.371,15.34 -2.379,22.891 0.676,5.16 2.364,13.742 8.411,15.238 1,0.25 1.996,0.363 2.984,0.363 10.344,0 19.777,-12.652 24.019,-20.609 2.415,-4.57 5.211,-10.781 3.614,-16.082 -0.5,-1.73 -1.426,-2.98 -2.571,-3.898 -2.992,-5.954 -10.859,-7.59 -17.273,-7.59"
         style="fill:#4f2419;fill-opacity:1;fill-rule:nonzero;stroke:none"
         id="path66" />
      <path
         d="m 762.531,1034.94 c -0.683,0 -1.347,0.03 -1.976,0.07 -5.266,0.35 -9.242,2.31 -11.059,7.44 -1.957,5.54 -2.586,11.88 -1.836,17.72 0.52,4.02 1.82,10.66 6.512,11.81 0.781,0.2 1.558,0.29 2.328,0.29 8.008,0 15.32,-9.78 18.598,-15.98 1.89,-3.55 4.043,-8.33 2.828,-12.45 -0.41,-1.35 -1.125,-2.3 -2.024,-3.04 -2.32,-4.58 -8.41,-5.86 -13.371,-5.86"
         style="fill:#4f2419;fill-opacity:1;fill-rule:nonzero;stroke:none"
         id="path68" />
      <path
         d="m 1002.58,660.531 c -1.99,0 -3.975,0.129 -5.908,0.391 -4.813,0.629 -12.805,2.238 -14.207,8.008 -2.625,10.961 10.719,21.332 18.875,25.769 3.4,1.832 7.75,3.903 11.89,3.903 1.05,0 2.09,-0.141 3.1,-0.454 1.6,-0.476 2.78,-1.359 3.65,-2.468 6.28,-3.231 7.39,-12.52 6.97,-18.891 -0.42,-6.5 -2.77,-11.367 -8.94,-13.617 -4.85,-1.75 -10.18,-2.641 -15.43,-2.641"
         style="fill:#4f2419;fill-opacity:1;fill-rule:nonzero;stroke:none"
         id="path70" />
      <path
         d="m 1088.87,453.852 c -1.41,0 -2.82,0.089 -4.19,0.269 -3.42,0.457 -9.11,1.59 -10.11,5.707 -1.86,7.801 7.64,15.184 13.44,18.332 2.41,1.32 5.51,2.789 8.45,2.789 0.75,0 1.5,-0.097 2.22,-0.32 1.13,-0.359 1.96,-0.988 2.58,-1.75 4.49,-2.309 5.28,-8.918 4.98,-13.457 -0.32,-4.613 -1.99,-8.102 -6.38,-9.703 -3.45,-1.239 -7.25,-1.867 -10.99,-1.867"
         style="fill:#4f2419;fill-opacity:1;fill-rule:nonzero;stroke:none"
         id="path72" />
      <path
         d="m 856.039,554.441 c -1.101,0 -2.199,0.079 -3.273,0.219 -2.653,0.34 -7.063,1.238 -7.825,4.418 -1.464,6.051 5.907,11.762 10.411,14.211 1.855,1.012 4.261,2.16 6.543,2.16 0.582,0 1.156,-0.07 1.71,-0.25 l 2.004,-1.347 c 3.477,-1.801 4.094,-6.922 3.86,-10.43 -0.235,-3.594 -1.539,-6.281 -4.934,-7.5 -2.672,-0.992 -5.605,-1.481 -8.496,-1.481"
         style="fill:#4f2419;fill-opacity:1;fill-rule:nonzero;stroke:none"
         id="path74" />
      <path
         d="m 1933.04,808.391 c -1.25,0 -2.45,0.05 -3.59,0.129 -9.54,0.64 -16.75,4.179 -20.05,13.48 -3.58,10.059 -4.71,21.559 -3.33,32.148 0.94,7.262 3.3,19.313 11.82,21.403 1.41,0.347 2.81,0.508 4.21,0.508 14.52,0 27.76,-17.75 33.73,-28.95 3.38,-6.418 7.31,-15.129 5.08,-22.589 -0.72,-2.43 -2.03,-4.168 -3.63,-5.489 -4.19,-8.332 -15.24,-10.64 -24.24,-10.64"
         style="fill:#4f2419;fill-opacity:1;fill-rule:nonzero;stroke:none"
         id="path76" />
      <path
         d="m 1620.73,688.922 c -0.88,0 -1.73,0.027 -2.53,0.078 -6.8,0.461 -11.93,2.98 -14.28,9.602 -2.53,7.179 -3.34,15.347 -2.37,22.886 0.69,5.172 2.37,13.75 8.41,15.242 1.01,0.25 2,0.36 2.99,0.36 10.35,0 19.77,-12.629 24.01,-20.621 2.42,-4.571 5.21,-10.77 3.62,-16.071 -0.51,-1.726 -1.43,-2.976 -2.56,-3.91 -3.01,-5.937 -10.89,-7.566 -17.29,-7.566"
         style="fill:#4f2419;fill-opacity:1;fill-rule:nonzero;stroke:none"
         id="path78" />
      <path
         d="m 1764.44,1045.84 c -0.68,0 -1.33,0.02 -1.95,0.06 -5.25,0.37 -9.23,2.32 -11.05,7.45 -1.96,5.55 -2.6,11.87 -1.84,17.72 0.52,4.02 1.84,10.67 6.51,11.82 0.78,0.19 1.55,0.28 2.32,0.28 8.02,0 15.34,-9.79 18.61,-15.98 1.88,-3.54 4.05,-8.34 2.81,-12.45 -0.39,-1.34 -1.12,-2.31 -2,-3.03 -2.32,-4.61 -8.44,-5.87 -13.41,-5.87"
         style="fill:#4f2419;fill-opacity:1;fill-rule:nonzero;stroke:none"
         id="path80" />
      <path
         d="m 2453.17,897.551 c -2.97,0 -5.93,0.187 -8.82,0.57 -7.16,0.949 -19.07,3.348 -21.13,11.938 -3.94,16.332 15.96,31.793 28.11,38.402 5.06,2.738 11.54,5.809 17.69,5.809 1.57,0 3.13,-0.2 4.63,-0.661 2.4,-0.73 4.13,-2.039 5.43,-3.668 9.37,-4.82 11.03,-18.652 10.4,-28.16 -0.64,-9.66 -4.12,-16.961 -13.34,-20.293 -7.21,-2.609 -15.15,-3.937 -22.97,-3.937"
         style="fill:#4f2419;fill-opacity:1;fill-rule:nonzero;stroke:none"
         id="path82" />
      <path
         d="m 2581.7,589.621 c -2.1,0 -4.18,0.129 -6.22,0.399 -5.09,0.691 -13.58,2.39 -15.05,8.511 -2.79,11.629 11.38,22.629 20,27.321 3.6,1.949 8.23,4.148 12.62,4.148 1.11,0 2.21,-0.141 3.27,-0.469 1.71,-0.531 2.95,-1.449 3.86,-2.621 6.69,-3.441 7.86,-13.269 7.4,-20.058 -0.44,-6.864 -2.93,-12.063 -9.48,-14.422 -5.12,-1.871 -10.81,-2.809 -16.4,-2.809"
         style="fill:#4f2419;fill-opacity:1;fill-rule:nonzero;stroke:none"
         id="path84" />
      <path
         d="m 2234.79,739.488 c -1.63,0 -3.24,0.114 -4.82,0.313 -3.98,0.527 -10.54,1.859 -11.68,6.609 -2.17,9 8.81,17.531 15.52,21.172 2.78,1.508 6.35,3.207 9.75,3.207 0.87,0 1.73,-0.117 2.57,-0.367 1.31,-0.402 2.26,-1.133 2.98,-2.024 5.17,-2.66 6.08,-10.289 5.73,-15.539 -0.35,-5.328 -2.29,-9.339 -7.35,-11.179 -4,-1.461 -8.39,-2.192 -12.7,-2.192"
         style="fill:#4f2419;fill-opacity:1;fill-rule:nonzero;stroke:none"
         id="path86" />
      <path
         d="m 3113.75,824.121 c -1.25,0 -2.46,0.051 -3.6,0.129 -9.54,0.66 -16.73,4.191 -20.04,13.488 -3.55,10.071 -4.71,21.551 -3.32,32.153 0.93,7.25 3.3,19.308 11.79,21.398 1.41,0.352 2.82,0.512 4.21,0.512 14.54,0 27.79,-17.742 33.74,-28.961 3.41,-6.41 7.33,-15.121 5.09,-22.578 -0.72,-2.422 -2.02,-4.184 -3.63,-5.5 -4.18,-8.321 -15.24,-10.641 -24.24,-10.641"
         style="fill:#4f2419;fill-opacity:1;fill-rule:nonzero;stroke:none"
         id="path88" />
      <path
         d="m 2801.46,704.66 c -0.89,0 -1.75,0.031 -2.57,0.09 -6.78,0.449 -11.91,2.969 -14.25,9.602 -2.54,7.16 -3.36,15.32 -2.36,22.867 0.65,5.179 2.35,13.761 8.4,15.242 1,0.25 2,0.359 2.99,0.359 10.33,0 19.77,-12.629 24.01,-20.609 2.41,-4.551 5.22,-10.762 3.62,-16.082 -0.51,-1.719 -1.44,-2.957 -2.58,-3.899 -2.99,-5.929 -10.85,-7.57 -17.26,-7.57"
         style="fill:#4f2419;fill-opacity:1;fill-rule:nonzero;stroke:none"
         id="path90" />
      <path
         d="m 2945.21,1061.59 c -0.7,0 -1.37,0.02 -2,0.07 -5.26,0.35 -9.24,2.29 -11.07,7.43 -1.95,5.54 -2.57,11.88 -1.82,17.73 0.51,4.01 1.81,10.64 6.5,11.81 0.78,0.19 1.56,0.28 2.33,0.28 8.02,0 15.32,-9.79 18.61,-15.98 1.87,-3.54 4.05,-8.35 2.81,-12.46 -0.4,-1.34 -1.12,-2.31 -2,-3.02 -2.31,-4.59 -8.4,-5.86 -13.36,-5.86"
         style="fill:#4f2419;fill-opacity:1;fill-rule:nonzero;stroke:none"
         id="path92" />
      <path
         d="m 228.063,1748.23 c -1.239,0 -2.438,0.04 -3.575,0.12 -9.547,0.64 -16.738,4.17 -20.031,13.48 -0.914,2.58 -1.672,5.25 -2.266,7.98 14.067,9.26 28.723,17.65 43.856,25.05 1.898,-2.79 3.523,-5.51 4.808,-7.93 3.407,-6.41 7.344,-15.12 5.106,-22.57 -0.731,-2.44 -2.031,-4.19 -3.641,-5.49 -4.191,-8.34 -15.254,-10.64 -24.257,-10.64"
         style="fill:#703921;fill-opacity:1;fill-rule:nonzero;stroke:none"
         id="path94" />
      <path
         d="m 202.191,1769.81 c -1.726,7.91 -2.105,16.28 -1.074,24.17 0.93,7.27 3.301,19.32 11.797,21.4 1.418,0.35 2.824,0.51 4.223,0.51 11.398,0 21.996,-10.91 28.91,-21.03 -15.133,-7.4 -29.789,-15.79 -43.856,-25.05"
         style="fill:#5f2d1b;fill-opacity:1;fill-rule:nonzero;stroke:none"
         id="path96" />
      <path
         d="m 59.5273,1985.68 c -0.6875,0 -1.3554,0.02 -1.9843,0.06 -5.2657,0.35 -9.2422,2.31 -11.0625,7.44 -1.9532,5.55 -2.5899,11.88 -1.8477,17.73 0.5235,4 1.8477,10.66 6.5274,11.8 0.7812,0.19 1.5546,0.28 2.3242,0.28 8.0039,0 15.3125,-9.78 18.6015,-15.96 1.8711,-3.53 4.043,-8.34 2.8125,-12.46 -0.4101,-1.34 -1.1211,-2.3 -2.0039,-3.03 -2.3007,-4.59 -8.4101,-5.86 -13.3672,-5.86"
         style="fill:#5f2d1b;fill-opacity:1;fill-rule:nonzero;stroke:none"
         id="path98" />
      <path
         d="m 819.863,1579.26 c -1.222,0 -2.406,0.04 -3.531,0.12 -9.539,0.66 -16.742,4.19 -20.043,13.5 -3.559,10.07 -4.707,21.53 -3.32,32.14 0.926,7.27 3.304,19.31 11.801,21.41 1.414,0.34 2.82,0.51 4.214,0.51 14.528,0 27.77,-17.75 33.715,-28.96 3.418,-6.42 7.344,-15.11 5.114,-22.58 -0.727,-2.43 -2.036,-4.17 -3.641,-5.5 -4.195,-8.34 -15.289,-10.64 -24.309,-10.64"
         style="fill:#5f2d1b;fill-opacity:1;fill-rule:nonzero;stroke:none"
         id="path100" />
      <path
         d="m 507.602,1459.79 c -0.872,0 -1.719,0.03 -2.52,0.09 -6.777,0.47 -11.918,2.99 -14.258,9.61 -2.543,7.15 -3.359,15.32 -2.371,22.88 0.672,5.17 2.352,13.74 8.402,15.23 1.008,0.25 2.008,0.36 3,0.36 10.34,0 19.758,-12.62 23.993,-20.6 2.425,-4.58 5.23,-10.77 3.636,-16.09 -0.519,-1.72 -1.433,-2.97 -2.586,-3.91 -2.988,-5.93 -10.882,-7.57 -17.296,-7.57"
         style="fill:#5f2d1b;fill-opacity:1;fill-rule:nonzero;stroke:none"
         id="path102" />
      <path
         d="m 651.344,1816.72 c -0.684,0 -1.344,0.02 -1.969,0.07 -5.25,0.35 -9.234,2.3 -11.051,7.43 -1.953,5.57 -2.582,11.89 -1.824,17.73 0.508,4.02 1.816,10.66 6.512,11.81 0.781,0.19 1.558,0.28 2.328,0.28 8.012,0 15.312,-9.78 18.586,-15.97 1.89,-3.54 4.047,-8.34 2.82,-12.46 -0.402,-1.33 -1.109,-2.31 -2.004,-3.02 -2.328,-4.6 -8.429,-5.87 -13.398,-5.87"
         style="fill:#5f2d1b;fill-opacity:1;fill-rule:nonzero;stroke:none"
         id="path104" />
      <path
         d="m 1252.81,1810.74 c -2.95,0 -5.88,0.19 -8.74,0.57 -7.19,0.96 -19.09,3.36 -21.16,11.95 -3.94,16.33 15.96,31.79 28.12,38.38 5.04,2.75 11.51,5.82 17.67,5.82 1.58,0 3.14,-0.2 4.65,-0.66 2.39,-0.73 4.13,-2.04 5.42,-3.66 9.37,-4.84 11.02,-18.66 10.4,-28.18 -0.64,-9.65 -4.14,-16.93 -13.33,-20.27 -7.24,-2.62 -15.2,-3.95 -23.03,-3.95"
         style="fill:#5f2d1b;fill-opacity:1;fill-rule:nonzero;stroke:none"
         id="path106" />
      <path
         d="m 1381.41,1502.81 c -2.1,0 -4.19,0.14 -6.23,0.41 -5.11,0.67 -13.58,2.39 -15.05,8.51 -2.81,11.61 11.36,22.62 20,27.3 3.61,1.96 8.21,4.15 12.59,4.15 1.13,0 2.23,-0.14 3.31,-0.47 1.7,-0.52 2.93,-1.46 3.86,-2.6 6.67,-3.45 7.84,-13.29 7.39,-20.06 -0.46,-6.87 -2.95,-12.05 -9.48,-14.43 -5.14,-1.86 -10.81,-2.81 -16.39,-2.81"
         style="fill:#5f2d1b;fill-opacity:1;fill-rule:nonzero;stroke:none"
         id="path108" />
      <path
         d="m 1034.51,1652.7 c -1.64,0 -3.27,0.1 -4.86,0.31 -3.96,0.53 -10.52,1.84 -11.67,6.59 -2.17,9 8.81,17.53 15.52,21.17 2.77,1.51 6.34,3.21 9.74,3.21 0.87,0 1.73,-0.12 2.57,-0.37 1.32,-0.41 2.26,-1.12 2.98,-2.02 5.17,-2.66 6.09,-10.29 5.74,-15.54 -0.35,-5.33 -2.27,-9.35 -7.34,-11.19 -3.99,-1.44 -8.37,-2.16 -12.68,-2.16"
         style="fill:#5f2d1b;fill-opacity:1;fill-rule:nonzero;stroke:none"
         id="path110" />
      <path
         d="m 1913.39,1737.32 c -1.23,0 -2.42,0.04 -3.55,0.12 -9.53,0.65 -16.74,4.19 -20.03,13.5 -3.55,10.06 -4.71,21.53 -3.33,32.14 0.95,7.26 3.32,19.32 11.81,21.4 1.41,0.35 2.81,0.51 4.21,0.51 14.53,0 27.77,-17.74 33.73,-28.96 3.41,-6.42 7.33,-15.11 5.09,-22.58 -0.72,-2.42 -2.02,-4.16 -3.63,-5.49 -4.2,-8.34 -15.29,-10.64 -24.3,-10.64"
         style="fill:#5f2d1b;fill-opacity:1;fill-rule:nonzero;stroke:none"
         id="path112" />
      <path
         d="m 1601.12,1617.85 c -0.88,0 -1.73,0.03 -2.53,0.08 -6.78,0.47 -11.92,2.99 -14.26,9.61 -2.53,7.17 -3.36,15.33 -2.37,22.87 0.67,5.17 2.35,13.75 8.41,15.24 1.01,0.25 2.01,0.37 3,0.37 10.34,0 19.78,-12.63 24.01,-20.62 2.42,-4.56 5.21,-10.76 3.63,-16.07 -0.52,-1.73 -1.44,-2.97 -2.6,-3.9 -2.97,-5.95 -10.87,-7.58 -17.29,-7.58"
         style="fill:#5f2d1b;fill-opacity:1;fill-rule:nonzero;stroke:none"
         id="path114" />
      <path
         d="m 1744.86,1974.77 c -0.68,0 -1.34,0.02 -1.97,0.07 -5.26,0.35 -9.24,2.31 -11.04,7.44 -1.96,5.56 -2.6,11.88 -1.84,17.73 0.52,4.01 1.83,10.65 6.51,11.8 0.78,0.19 1.56,0.28 2.33,0.28 8.01,0 15.33,-9.78 18.59,-15.96 1.89,-3.54 4.05,-8.34 2.82,-12.46 -0.39,-1.34 -1.1,-2.3 -2.01,-3.04 -2.3,-4.59 -8.41,-5.86 -13.39,-5.86"
         style="fill:#5f2d1b;fill-opacity:1;fill-rule:nonzero;stroke:none"
         id="path116" />
      <path
         d="m 3206.15,1579.26 c -1.22,0 -2.41,0.04 -3.53,0.12 -9.56,0.66 -16.74,4.19 -20.06,13.5 -3.56,10.07 -4.69,21.53 -3.32,32.14 0.94,7.27 3.31,19.31 11.82,21.41 1.41,0.34 2.82,0.51 4.21,0.51 14.51,0 27.77,-17.75 33.71,-28.96 3.41,-6.42 7.33,-15.11 5.12,-22.58 -0.74,-2.43 -2.04,-4.17 -3.65,-5.5 -4.18,-8.34 -15.29,-10.64 -24.3,-10.64"
         style="fill:#5f2d1b;fill-opacity:1;fill-rule:nonzero;stroke:none"
         id="path118" />
      <path
         d="m 2893.88,1459.79 c -0.87,0 -1.71,0.03 -2.51,0.09 -6.8,0.47 -11.93,2.99 -14.27,9.61 -2.53,7.15 -3.35,15.32 -2.37,22.88 0.68,5.17 2.35,13.74 8.41,15.23 1.01,0.25 2.01,0.36 3,0.36 10.33,0 19.75,-12.62 23.99,-20.6 2.42,-4.58 5.21,-10.77 3.61,-16.09 -0.5,-1.72 -1.42,-2.97 -2.55,-3.91 -3.01,-5.93 -10.91,-7.57 -17.31,-7.57"
         style="fill:#5f2d1b;fill-opacity:1;fill-rule:nonzero;stroke:none"
         id="path120" />
      <path
         d="m 3037.64,1816.72 c -0.68,0 -1.34,0.02 -1.96,0.07 -5.27,0.35 -9.25,2.3 -11.08,7.43 -1.95,5.57 -2.58,11.89 -1.83,17.73 0.52,4.02 1.83,10.66 6.51,11.81 0.78,0.19 1.56,0.28 2.33,0.28 8.02,0 15.31,-9.78 18.59,-15.97 1.88,-3.54 4.06,-8.34 2.82,-12.46 -0.39,-1.33 -1.12,-2.31 -2,-3.02 -2.31,-4.6 -8.43,-5.87 -13.38,-5.87"
         style="fill:#5f2d1b;fill-opacity:1;fill-rule:nonzero;stroke:none"
         id="path122" />
      <path
         d="m 1984.91,1600.36 c -1.98,0 -3.96,0.12 -5.89,0.38 -4.83,0.65 -12.8,2.25 -14.2,8.03 -2.64,10.94 10.73,21.33 18.88,25.75 3.39,1.85 7.74,3.91 11.87,3.91 1.06,0 2.1,-0.13 3.11,-0.44 1.62,-0.5 2.77,-1.38 3.64,-2.47 6.29,-3.24 7.4,-12.51 6.98,-18.91 -0.43,-6.48 -2.77,-11.36 -8.94,-13.6 -4.85,-1.76 -10.19,-2.65 -15.45,-2.65"
         style="fill:#5f2d1b;fill-opacity:1;fill-rule:nonzero;stroke:none"
         id="path124" />
      <path
         d="m 2071.22,1393.68 c -1.41,0 -2.81,0.09 -4.17,0.27 -3.44,0.45 -9.13,1.6 -10.11,5.71 -1.89,7.8 7.62,15.19 13.43,18.33 2.4,1.31 5.49,2.79 8.44,2.79 0.75,0 1.5,-0.1 2.22,-0.32 1.12,-0.36 1.96,-0.98 2.58,-1.75 4.48,-2.31 5.27,-8.91 4.96,-13.46 -0.29,-4.61 -1.96,-8.09 -6.36,-9.68 -3.44,-1.25 -7.25,-1.89 -10.99,-1.89"
         style="fill:#5f2d1b;fill-opacity:1;fill-rule:nonzero;stroke:none"
         id="path126" />
      <path
         d="m 1838.37,1494.27 c -1.1,0 -2.19,0.07 -3.25,0.22 -2.66,0.36 -7.07,1.25 -7.84,4.42 -1.45,6.05 5.91,11.77 10.41,14.22 1.88,1.01 4.28,2.15 6.56,2.15 0.58,0 1.16,-0.08 1.71,-0.24 l 2,-1.36 c 3.48,-1.79 4.1,-6.91 3.87,-10.43 -0.25,-3.58 -1.54,-6.27 -4.94,-7.5 -2.68,-0.98 -5.63,-1.48 -8.52,-1.48"
         style="fill:#5f2d1b;fill-opacity:1;fill-rule:nonzero;stroke:none"
         id="path128" />
      <path
         d="m 2915.36,1748.23 c -1.24,0 -2.44,0.04 -3.58,0.12 -9.54,0.64 -16.74,4.17 -20.04,13.48 -3.54,10.06 -4.69,21.55 -3.34,32.15 0.96,7.27 3.33,19.32 11.83,21.4 1.41,0.35 2.82,0.51 4.22,0.51 14.52,0 27.77,-17.74 33.72,-28.96 3.4,-6.41 7.32,-15.12 5.09,-22.57 -0.73,-2.44 -2.03,-4.19 -3.63,-5.49 -4.19,-8.34 -15.26,-10.64 -24.27,-10.64"
         style="fill:#5f2d1b;fill-opacity:1;fill-rule:nonzero;stroke:none"
         id="path130" />
      <path
         d="m 2603.09,1628.75 c -0.88,0 -1.74,0.03 -2.55,0.09 -6.79,0.46 -11.92,2.98 -14.28,9.6 -2.53,7.17 -3.34,15.33 -2.36,22.87 0.67,5.17 2.36,13.74 8.41,15.25 1,0.24 2,0.36 3,0.36 10.35,0 19.77,-12.63 24,-20.62 2.42,-4.57 5.23,-10.76 3.62,-16.07 -0.5,-1.73 -1.43,-2.97 -2.57,-3.9 -2.98,-5.93 -10.86,-7.58 -17.27,-7.58"
         style="fill:#5f2d1b;fill-opacity:1;fill-rule:nonzero;stroke:none"
         id="path132" />
      <path
         d="m 2746.81,1985.68 c -0.69,0 -1.36,0.02 -1.99,0.06 -5.25,0.35 -9.23,2.31 -11.03,7.44 -1.97,5.55 -2.6,11.88 -1.84,17.73 0.53,4 1.82,10.66 6.5,11.8 0.78,0.19 1.56,0.28 2.33,0.28 8.02,0 15.33,-9.78 18.61,-15.96 1.87,-3.53 4.04,-8.34 2.8,-12.46 -0.37,-1.34 -1.09,-2.3 -1.99,-3.03 -2.32,-4.59 -8.41,-5.86 -13.39,-5.86"
         style="fill:#5f2d1b;fill-opacity:1;fill-rule:nonzero;stroke:none"
         id="path134" />
    </g>
  </g>
</svg>
